<svg width="24" height="24" viewBox="0 0 40 40" fill="none" xmlns="http://www.w3.org/2000/svg">
<path d="M4.99999 31.6667H35C35.3037 31.6658 35.6014 31.582 35.8611 31.4244C36.1208 31.2669 36.3326 31.0414 36.4736 30.7725C36.6147 30.5035 36.6798 30.2011 36.6618 29.8979C36.6439 29.5947 36.5435 29.3021 36.3717 29.0517L21.3717 7.38505C20.75 6.48672 19.2533 6.48672 18.63 7.38505L3.62999 29.0517C3.45636 29.3016 3.35455 29.5943 3.3356 29.898C3.31665 30.2018 3.3813 30.5049 3.52251 30.7744C3.66373 31.0439 3.87612 31.2696 4.1366 31.427C4.39708 31.5843 4.69569 31.6672 4.99999 31.6667ZM20 11.2617L31.82 28.3334H8.17999L20 11.2617Z" fill="#afcde7"/>
</svg>
